# xmcd
#
# Track frame offsets:
#	150
#	23986
#	43664
#	66117
#	82496
#	101871
#	119400
#	135376
#	154086
#	172512
#	191285
#	210859
#	225233
#	243635
#	265879
#	283830
#
# Disc length: 3973 seconds
#
# Revision: 0
# Processed by: cddbd v1.5.2PL0 Copyright (c) Steve Scherf et al.
# Submitted via: EZCDAudioConverter 8.3.2.1
#
DISCID=d80f8310
DTITLE=黄安 - 新鸳鸯蝴蝶梦双CD  A
DYEAR=2000
DGENRE=流行
TTITLE0=明明知道相思苦
TTITLE1=新鸳鸯蝴蝶梦
TTITLE2=妹妹我爱 你
TTITLE3=绝配
TTITLE4=世间人
TTITLE5=救姻缘
TTITLE6=陪你到天涯
TTITLE7=我愿为你错
TTITLE8=君莫攀
TTITLE9=女儿
TTITLE10=爱别离
TTITLE11=答案
TTITLE12=样样红
TTITLE13=爱与喜欢之间
TTITLE14=情奔
TTITLE15=样样红（儿童版）
EXTD=
EXTT0=
EXTT1=
EXTT2=
EXTT3=
EXTT4=
EXTT5=
EXTT6=
EXTT7=
EXTT8=
EXTT9=
EXTT10=
EXTT11=
EXTT12=
EXTT13=
EXTT14=
EXTT15=
PLAYORDER=
